<svg width="24" height="16" viewBox="0 0 24 16" fill="none" xmlns="http://www.w3.org/2000/svg">
<line y1="15.5" x2="24" y2="15.5" stroke="#4A1B96"/>
<path d="M23.0572 4.78208C23.1199 4.52514 23.0842 4.25407 22.9572 4.02208C22.6332 3.45972 22.2012 2.9669 21.6862 2.57188C21.1712 2.17686 20.5832 1.88743 19.9561 1.72019C19.3289 1.55295 18.6749 1.5112 18.0316 1.59732C17.3883 1.68345 16.7683 1.89577 16.2072 2.22208L14.0572 3.46208L9.05724 1.11208C8.91509 1.03844 8.75733 1 8.59724 1C8.43714 1 8.27939 1.03844 8.13724 1.11208L5.13724 2.84208C4.98898 2.9276 4.86515 3.04975 4.7776 3.19682C4.69006 3.3439 4.64173 3.51098 4.63724 3.68208C4.6324 3.85445 4.67221 4.02514 4.75281 4.17758C4.83341 4.33002 4.95206 4.45903 5.09724 4.55208L8.39724 6.63208L6.65724 7.63208L1.87724 8.21208C1.68508 8.23585 1.50396 8.31489 1.35586 8.43961C1.20776 8.56432 1.09905 8.72935 1.04293 8.91466C0.986808 9.09997 0.985689 9.29758 1.03971 9.48351C1.09373 9.66944 1.20056 9.83569 1.34724 9.96208L4.88724 13.0221C5.35329 13.4669 5.95014 13.7498 6.58949 13.8291C7.22883 13.9083 7.8767 13.7796 8.43724 13.4621L22.5572 5.39208C22.6776 5.32961 22.784 5.24332 22.8699 5.13846C22.9559 5.03359 23.0196 4.91234 23.0572 4.78208ZM7.52724 11.7821C7.33515 11.8878 7.11364 11.9274 6.89682 11.8949C6.67999 11.8624 6.47987 11.7595 6.32724 11.6021L4.42724 9.97208L7.15724 9.64208C7.29139 9.62489 7.42067 9.58067 7.53724 9.51208L10.8972 7.58208C11.0469 7.49569 11.1717 7.37197 11.2593 7.223C11.3469 7.07403 11.3945 6.90489 11.3972 6.73208C11.3993 6.56045 11.3571 6.39118 11.2748 6.24056C11.1925 6.08994 11.0728 5.96304 10.9272 5.87208L7.62724 3.78208L8.72724 3.15208L13.7272 5.47208C13.8694 5.54572 14.0271 5.58416 14.1872 5.58416C14.3473 5.58416 14.5051 5.54572 14.6472 5.47208L17.2072 3.99208C17.7318 3.69808 18.3327 3.56854 18.9318 3.62025C19.531 3.67196 20.1008 3.90254 20.5672 4.28208L7.52724 11.7821Z" fill="#4A1B96"/>
</svg>
