<svg width="14" height="10" viewBox="0 0 14 10" fill="none" xmlns="http://www.w3.org/2000/svg">
<path fill-rule="evenodd" clip-rule="evenodd" d="M12.8353 2.19292C12.9062 2.32287 12.9262 2.47473 12.8912 2.61866C12.8701 2.69163 12.8345 2.75955 12.7864 2.8183C12.7384 2.87704 12.6789 2.92538 12.6116 2.96037L4.71817 7.48105C4.40481 7.65894 4.04264 7.73102 3.68522 7.68663C3.32781 7.64224 2.99416 7.48373 2.73362 7.23457L0.754663 5.52041C0.672666 5.44961 0.612943 5.35648 0.582745 5.25232C0.552547 5.14817 0.553172 5.03747 0.584546 4.93366C0.615919 4.82985 0.676691 4.73741 0.759484 4.66754C0.842276 4.59768 0.943528 4.5534 1.05095 4.54009L3.7231 4.21518L4.69581 3.655L2.85102 2.48982C2.76986 2.43769 2.70353 2.36542 2.65847 2.28003C2.61341 2.19463 2.59116 2.09901 2.59386 2.00246C2.59637 1.90661 2.62339 1.81301 2.67233 1.73062C2.72127 1.64823 2.7905 1.57981 2.87338 1.5319L4.55046 0.562786C4.62993 0.521532 4.71812 0.5 4.80761 0.5C4.89711 0.5 4.9853 0.521532 5.06477 0.562786L7.85991 1.87922L9.06182 1.18459C9.37547 1.00179 9.72206 0.882858 10.0817 0.834611C10.4413 0.786364 10.8069 0.809754 11.1575 0.903438C11.5081 0.997123 11.8368 1.15926 12.1247 1.38054C12.4126 1.60182 12.6541 1.8779 12.8353 2.19292ZM3.85703 6.60313C3.97824 6.62135 4.10207 6.59915 4.20946 6.53994L11.4992 2.33857C11.2384 2.12596 10.9199 1.99679 10.5849 1.96782C10.25 1.93885 9.91411 2.01142 9.62084 2.17611L8.18973 3.00518C8.11027 3.04644 8.02208 3.06797 7.93258 3.06797C7.84308 3.06797 7.75489 3.04644 7.67543 3.00518L4.88029 1.70556L4.26536 2.05847L6.11015 3.22926C6.19152 3.28021 6.25844 3.3513 6.30445 3.43567C6.35047 3.52005 6.37404 3.61487 6.37289 3.71102C6.37134 3.80782 6.34477 3.90257 6.29578 3.98602C6.24679 4.06947 6.17706 4.13877 6.09338 4.18717L4.21504 5.26832C4.14988 5.30674 4.07761 5.33152 4.00261 5.34115L2.47647 5.52601L3.53862 6.43911C3.62394 6.52728 3.73582 6.58491 3.85703 6.60313ZM0 9.49994H14V8.49994H0V9.49994Z" fill="black" fill-opacity="0.7"/>
</svg>
