<svg width="28" height="23" viewBox="0 0 28 23" fill="none" xmlns="http://www.w3.org/2000/svg">
<path fill-rule="evenodd" clip-rule="evenodd" d="M25.7011 15.04C26.5322 13.0987 26.6276 10.8619 25.9271 8.68982C25.4842 7.31621 24.7426 6.03218 23.7645 4.92021C23.0922 7.46087 21.9656 9.86014 20.4379 12.0013L25.7011 15.04ZM21.3873 2.86843C21.9444 3.23058 22.4649 3.63637 22.9436 4.07896C22.3189 6.75122 21.1714 9.27298 19.5677 11.4989L16.8636 9.93769L21.3873 2.86843ZM20.5258 2.35939C19.8848 2.01663 19.2194 1.73751 18.5408 1.52338L17.7834 2.09137C15.8608 3.53337 14.2212 5.31837 12.9475 7.35639L12.8004 7.59176L15.9967 9.43717L20.5258 2.35939ZM11.9338 7.09145L12.0995 6.8264C13.4386 4.68386 15.1622 2.80732 17.1834 1.29137L17.2968 1.20639C15.8618 0.92594 14.3981 0.929409 13.0044 1.22885C10.7731 1.70823 8.88367 2.90929 7.61795 4.59968L11.9338 7.09145ZM26.5727 15.5432C27.5472 13.3446 27.6629 10.8139 26.8789 8.38288C25.9864 5.61542 24.0011 3.20395 21.3597 1.67895C18.7183 0.153959 15.6373 -0.359635 12.7943 0.251155C10.297 0.787687 8.16313 2.15322 6.74636 4.09647C6.55027 4.36543 6.36792 4.64545 6.20024 4.93587L7.06627 5.43587L15.065 10.0539L8.91661 20.929H0V22.929H24.5V20.929H11.2141L16.7971 11.054L25.2528 15.9359L26.1188 16.4359C26.2865 16.1455 26.4378 15.8475 26.5727 15.5432Z" fill="white"/>
</svg>
