<svg width="30" height="30" viewBox="0 0 30 30" fill="none" xmlns="http://www.w3.org/2000/svg">
<path d="M8.25 4.09573C8.44741 4.09676 8.6431 4.06237 8.82586 3.99452C9.00862 3.92668 9.17484 3.82671 9.315 3.70035L10.815 2.33696C11.0975 2.08023 11.2561 1.73203 11.2561 1.36896C11.2561 1.00589 11.0975 0.657689 10.815 0.400959C10.5325 0.144229 10.1495 2.70509e-09 9.75 0C9.35055 -2.70509e-09 8.96746 0.144229 8.685 0.400959L7.185 1.76434C7.04441 1.89109 6.93282 2.04188 6.85666 2.20802C6.78051 2.37416 6.7413 2.55236 6.7413 2.73234C6.7413 2.91233 6.78051 3.09053 6.85666 3.25667C6.93282 3.42281 7.04441 3.5736 7.185 3.70035C7.32516 3.82671 7.49138 3.92668 7.67414 3.99452C7.8569 4.06237 8.05259 4.09676 8.25 4.09573ZM14.25 4.09573C14.4474 4.09676 14.6431 4.06237 14.8259 3.99452C15.0086 3.92668 15.1748 3.82671 15.315 3.70035L16.815 2.33696C17.0975 2.08023 17.2561 1.73203 17.2561 1.36896C17.2561 1.00589 17.0975 0.657689 16.815 0.400959C16.5325 0.144229 16.1495 0 15.75 0C15.3505 0 14.9675 0.144229 14.685 0.400959L13.185 1.76434C13.0444 1.89109 12.9328 2.04188 12.8567 2.20802C12.7805 2.37416 12.7413 2.55236 12.7413 2.73234C12.7413 2.91233 12.7805 3.09053 12.8567 3.25667C12.9328 3.42281 13.0444 3.5736 13.185 3.70035C13.3252 3.82671 13.4914 3.92668 13.6741 3.99452C13.8569 4.06237 14.0526 4.09676 14.25 4.09573ZM20.25 4.09573C20.4474 4.09676 20.6431 4.06237 20.8259 3.99452C21.0086 3.92668 21.1748 3.82671 21.315 3.70035L22.815 2.33696C22.9549 2.20984 23.0658 2.05893 23.1415 1.89284C23.2172 1.72675 23.2561 1.54874 23.2561 1.36896C23.2561 1.18919 23.2172 1.01117 23.1415 0.845082C23.0658 0.678992 22.9549 0.528079 22.815 0.400959C22.6751 0.27384 22.5091 0.173003 22.3264 0.104206C22.1436 0.0354092 21.9478 0 21.75 0C21.5522 0 21.3564 0.0354092 21.1736 0.104206C20.9909 0.173003 20.8249 0.27384 20.685 0.400959L19.185 1.76434C19.0444 1.89109 18.9328 2.04188 18.8567 2.20802C18.7805 2.37416 18.7413 2.55236 18.7413 2.73234C18.7413 2.91233 18.7805 3.09053 18.8567 3.25667C18.9328 3.42281 19.0444 3.5736 19.185 3.70035C19.3252 3.82671 19.4914 3.92668 19.6741 3.99452C19.8569 4.06237 20.0526 4.09676 20.25 4.09573ZM23.88 19.9382C23.8472 19.8514 23.8018 19.7688 23.745 19.6928L23.565 19.4883L23.34 19.3247C23.2564 19.2731 23.1656 19.2318 23.07 19.202C22.9807 19.1605 22.8844 19.1328 22.785 19.1202C22.544 19.0763 22.2949 19.087 22.0595 19.1512C21.8241 19.2154 21.6096 19.3311 21.435 19.4883C21.3705 19.5531 21.3104 19.6214 21.255 19.6928C21.1982 19.7688 21.1528 19.8514 21.12 19.9382C21.0768 20.0155 21.0464 20.0982 21.03 20.1836C21.0226 20.2744 21.0226 20.3656 21.03 20.4563C21.0317 20.814 21.1879 21.1567 21.465 21.4107C21.6037 21.5425 21.7727 21.6449 21.96 21.7106C22.131 21.7771 22.3141 21.8141 22.5 21.8197C22.8978 21.8197 23.2794 21.6761 23.5607 21.4204C23.842 21.1647 24 20.8179 24 20.4563C24.0074 20.3656 24.0074 20.2744 24 20.1836C23.9742 20.0967 23.9337 20.0139 23.88 19.9382ZM26.64 13.7894L24.6 8.25404C24.2888 7.45405 23.7116 6.76183 22.9484 6.27327C22.1851 5.78471 21.2735 5.52401 20.34 5.52728H9.66C8.72646 5.52401 7.81492 5.78471 7.05165 6.27327C6.28838 6.76183 5.71117 7.45405 5.4 8.25404L3.36 13.7894C2.40049 14.0178 1.55087 14.5279 0.943244 15.2404C0.335614 15.953 0.00401493 16.828 0 17.7296V23.1831C0.00260927 24.0269 0.292318 24.8494 0.829408 25.5377C1.3665 26.2261 2.12468 26.7465 3 27.0278V28.6366C3 28.9982 3.15804 29.345 3.43934 29.6007C3.72064 29.8564 4.10218 30 4.5 30C4.89782 30 5.27936 29.8564 5.56066 29.6007C5.84196 29.345 6 28.9982 6 28.6366V27.2732H24V28.6366C24 28.9982 24.158 29.345 24.4393 29.6007C24.7206 29.8564 25.1022 30 25.5 30C25.8978 30 26.2794 29.8564 26.5607 29.6007C26.842 29.345 27 28.9982 27 28.6366V27.0278C27.8753 26.7465 28.6335 26.2261 29.1706 25.5377C29.7077 24.8494 29.9974 24.0269 30 23.1831V17.7296C29.996 16.828 29.6644 15.953 29.0568 15.2404C28.4491 14.5279 27.5995 14.0178 26.64 13.7894ZM8.235 9.11298C8.33563 8.84218 8.52735 8.60698 8.78306 8.44061C9.03877 8.27425 9.34553 8.18514 9.66 8.18588H20.34C20.6671 8.17036 20.9908 8.25258 21.2617 8.41999C21.5325 8.58739 21.7356 8.83078 21.84 9.11298L23.415 13.6394H6.585L8.235 9.11298ZM27 23.1831C27 23.5447 26.842 23.8915 26.5607 24.1471C26.2794 24.4028 25.8978 24.5465 25.5 24.5465H4.5C4.10218 24.5465 3.72064 24.4028 3.43934 24.1471C3.15804 23.8915 3 23.5447 3 23.1831V17.7296C3 17.368 3.15804 17.0212 3.43934 16.7655C3.72064 16.5098 4.10218 16.3662 4.5 16.3662H25.5C25.8978 16.3662 26.2794 16.5098 26.5607 16.7655C26.842 17.0212 27 17.368 27 17.7296V23.1831ZM16.5 19.0929H13.5C13.1022 19.0929 12.7206 19.2366 12.4393 19.4923C12.158 19.7479 12 20.0947 12 20.4563C12 20.8179 12.158 21.1647 12.4393 21.4204C12.7206 21.6761 13.1022 21.8197 13.5 21.8197H16.5C16.8978 21.8197 17.2794 21.6761 17.5607 21.4204C17.842 21.1647 18 20.8179 18 20.4563C18 20.0947 17.842 19.7479 17.5607 19.4923C17.2794 19.2366 16.8978 19.0929 16.5 19.0929ZM8.88 19.9382C8.84717 19.8514 8.80177 19.7688 8.745 19.6928L8.565 19.4883C8.35406 19.2991 8.0862 19.171 7.79522 19.12C7.50424 19.0691 7.20317 19.0976 6.93 19.202C6.74587 19.2669 6.57766 19.3642 6.435 19.4883C6.37049 19.5531 6.31038 19.6214 6.255 19.6928C6.19823 19.7688 6.15283 19.8514 6.12 19.9382C6.06631 20.0139 6.02583 20.0967 6 20.1836C5.99264 20.2744 5.99264 20.3656 6 20.4563C6.00124 20.726 6.09043 20.9892 6.25627 21.2128C6.42211 21.4364 6.65717 21.6102 6.93172 21.7124C7.20627 21.8145 7.50798 21.8404 7.7987 21.7867C8.08942 21.733 8.35609 21.6021 8.565 21.4107C8.84212 21.1567 8.99834 20.814 9 20.4563C9.00736 20.3656 9.00736 20.2744 9 20.1836C8.97417 20.0967 8.93369 20.0139 8.88 19.9382Z" fill="white"/>
</svg>
