<svg width="14" height="10" viewBox="0 0 14 10" fill="none" xmlns="http://www.w3.org/2000/svg">
<path fill-rule="evenodd" clip-rule="evenodd" d="M12.2818 8.5C12.4009 8.42145 12.4886 8.3046 12.5291 8.16934C12.6274 7.81244 12.6525 7.4401 12.603 7.0737C12.5535 6.70729 12.4304 6.35404 12.2407 6.0342C12.051 5.71436 11.7984 5.43423 11.4975 5.20989C11.1967 4.98555 10.8534 4.82141 10.4873 4.72689L9.08903 4.36051L7.99596 1.40121C7.9677 1.31433 7.91849 1.23533 7.85245 1.17088C7.78642 1.10642 7.70549 1.05838 7.61648 1.03079L5.66545 0.51946C5.56902 0.494199 5.46757 0.49352 5.37079 0.517489C5.27401 0.541457 5.18516 0.589271 5.11273 0.656353C5.03964 0.723804 4.98565 0.808558 4.95602 0.902387C4.92639 0.996215 4.92211 1.09593 4.94362 1.19184L5.44684 3.35797L4.31665 3.06003L2.10576 1.369C2.0167 1.3012 1.90939 1.2601 1.79685 1.25069C1.68432 1.24127 1.57141 1.26395 1.47183 1.31596C1.37224 1.36798 1.29027 1.44709 1.23586 1.5437C1.18145 1.64031 1.15694 1.75026 1.16531 1.8602L1.3633 4.51753C1.37207 4.88426 1.50154 5.23849 1.73257 5.52781C1.96361 5.81713 2.28391 6.02617 2.64611 6.12401L11.574 8.5H0V9.5H14V8.5H12.2818ZM2.65715 4.8728C2.73317 4.9732 2.84089 5.04642 2.96372 5.08121L11.436 7.31175C11.4002 6.97112 11.2603 6.64888 11.0345 6.38683C10.8087 6.12478 10.5074 5.93502 10.1697 5.84217L8.50331 5.40733C8.4143 5.37975 8.33337 5.33171 8.26734 5.26725C8.2013 5.20279 8.15209 5.1238 8.12383 5.03692L7.01839 2.0897L6.3048 1.90047L6.8039 4.07062C6.82642 4.16585 6.82345 4.26513 6.79528 4.35892C6.7671 4.4527 6.71467 4.53783 6.64303 4.60611C6.5706 4.67457 6.48123 4.72353 6.38364 4.74823C6.28605 4.77292 6.18356 4.77251 6.08618 4.74703L3.90417 4.17127C3.8278 4.15195 3.75623 4.11771 3.6938 4.07062L2.43162 3.10432L2.54299 4.52558C2.54102 4.65041 2.58113 4.77241 2.65715 4.8728Z" fill="#33363F"/>
</svg>
