<svg width="24" height="16" viewBox="0 0 24 16" fill="none" xmlns="http://www.w3.org/2000/svg">
<path fill-rule="evenodd" clip-rule="evenodd" d="M21.4771 13.6626C21.4028 13.9164 21.2364 14.1333 21.0104 14.2707C20.8917 14.3362 20.7609 14.3768 20.6259 14.3902C20.491 14.4036 20.3548 14.3894 20.2255 14.3485L4.53479 10.0705C3.91389 9.89865 3.36478 9.53152 2.96873 9.0234C2.57268 8.51528 2.35072 7.89317 2.33569 7.24911L1.99628 2.5822C1.98193 2.38912 2.02394 2.19602 2.11722 2.02635C2.21049 1.85668 2.35102 1.71773 2.52174 1.62639C2.69245 1.53504 2.88601 1.49521 3.07893 1.51175C3.27184 1.52828 3.4558 1.60047 3.60848 1.71953L7.39857 4.68938L9.33605 5.21264L8.47338 1.4084C8.43651 1.23995 8.44384 1.06483 8.49464 0.900047C8.54543 0.735261 8.63798 0.586412 8.76329 0.467953C8.88745 0.350141 9.03977 0.266168 9.20567 0.224074C9.37157 0.181979 9.5455 0.183172 9.71081 0.227537L13.0554 1.12556C13.208 1.174 13.3467 1.25837 13.4599 1.37158C13.5732 1.48478 13.6575 1.62351 13.706 1.7761L15.5798 6.97333L17.9769 7.6168C18.6044 7.7828 19.1929 8.07106 19.7087 8.46506C20.2245 8.85906 20.6574 9.35103 20.9826 9.91274C21.3078 10.4745 21.5189 11.0949 21.6037 11.7383C21.6886 12.3818 21.6455 13.0358 21.4771 13.6626ZM4.55372 7.87305C4.68404 8.04937 4.8687 8.17797 5.07926 8.23906L19.6032 12.1564C19.5418 11.5582 19.3019 10.9923 18.9148 10.532C18.5277 10.0718 18.0113 9.73855 17.4324 9.57549L14.5757 8.81181C14.4231 8.76337 14.2844 8.679 14.1712 8.5658C14.058 8.45259 13.9736 8.31386 13.9252 8.16127L12.0301 2.98525L10.8068 2.65291L11.6624 6.46422C11.701 6.63146 11.6959 6.80583 11.6476 6.97054C11.5994 7.13525 11.5095 7.28476 11.3867 7.40467C11.2625 7.5249 11.1093 7.61089 10.942 7.65427C10.7747 7.69764 10.599 7.69691 10.4321 7.65216L6.69147 6.641C6.56054 6.60706 6.43786 6.54693 6.33084 6.46422L4.1671 4.76716L4.35801 7.26325C4.35464 7.48247 4.4234 7.69673 4.55372 7.87305ZM0 15.9995H24V14.9995H0V15.9995Z" fill="#4A1B96"/>
</svg>
