<svg width="18" height="17" viewBox="0 0 18 17" fill="none" xmlns="http://www.w3.org/2000/svg">
<path d="M13.3326 10.325C13.3325 11.3609 13.0723 12.3801 12.5758 13.2887C12.0793 14.1974 11.3626 14.9665 10.4915 15.5251C9.62043 16.0836 8.62306 16.4138 7.59117 16.4851C6.55929 16.5565 5.52605 16.3668 4.58657 15.9334C3.6471 15.5 2.83158 14.8371 2.21506 14.0053C1.59855 13.1736 1.20086 12.1999 1.0586 11.1739C0.916343 10.1479 1.03408 9.10257 1.40099 8.1341C1.7679 7.16563 2.37218 6.30513 3.15821 5.63184" stroke="#4A1B96" stroke-linecap="round" stroke-linejoin="round"/>
<path d="M6.89463 8.03906C6.7643 8.30855 6.69683 8.60417 6.69731 8.90359C6.69567 9.15221 6.74336 9.39866 6.8376 9.62867C6.93185 9.85867 7.07076 10.0676 7.24631 10.2434C7.42185 10.4192 7.63052 10.5583 7.86017 10.6527C8.08985 10.7471 8.33596 10.7949 8.5842 10.7932C8.83606 10.7932 9.07759 10.8934 9.25567 11.0718C9.43376 11.2501 9.53381 11.492 9.53381 11.7442V16.0298" stroke="#4A1B96" stroke-linecap="round" stroke-linejoin="round"/>
<path d="M1.08594 11.2751H3.36748C3.621 11.2685 3.87329 11.3128 4.10943 11.4054C4.34558 11.498 4.56082 11.6371 4.74243 11.8144C4.92405 11.9916 5.06837 12.2035 5.16688 12.4375C5.26541 12.6716 5.31612 12.923 5.31603 13.1771V16.203" stroke="#4A1B96" stroke-linecap="round" stroke-linejoin="round"/>
<path d="M16.7374 2.25973L15.5042 1.83981C15.4176 1.81032 15.3236 1.81005 15.2368 1.83904C15.1498 1.86803 15.0749 1.9247 15.0232 2.00037L14.1229 3.39597L9.1899 0.925871C8.80002 0.695767 8.36419 0.554804 7.91355 0.513068C7.46293 0.471332 7.00866 0.529856 6.58326 0.684451C6.15786 0.839046 5.77182 1.08589 5.4528 1.40732C5.13377 1.72876 4.88962 2.11683 4.73783 2.54379C4.69599 2.65455 4.67803 2.77291 4.68509 2.89112C4.69216 3.00932 4.72411 3.1247 4.77885 3.22967C4.83359 3.33464 4.90987 3.42682 5.0027 3.50018C5.09552 3.57354 5.20279 3.62642 5.31746 3.65533L8.53628 4.69277L8.85692 4.80392L9.46122 6.8788C9.48063 6.95104 9.51794 7.01721 9.56968 7.07119C9.62141 7.12517 9.68591 7.16518 9.75721 7.18756L11.2125 7.65688C11.2867 7.68111 11.366 7.68584 11.4427 7.6706C11.5193 7.65536 11.5907 7.62067 11.6502 7.56984C11.7096 7.51902 11.755 7.45377 11.782 7.38035C11.809 7.30693 11.8167 7.22779 11.8044 7.15051L11.4838 5.6067H11.6934L14.8382 6.63179C15.0444 6.70293 15.2702 6.68964 15.4665 6.59479C15.6629 6.49994 15.8138 6.33123 15.8865 6.12542L16.9964 2.70434C17.0086 2.61195 16.9899 2.51812 16.943 2.43763C16.896 2.35713 16.8238 2.29454 16.7374 2.25973Z" stroke="#4A1B96" stroke-linecap="round" stroke-linejoin="round"/>
</svg>
