<svg width="39" height="38" viewBox="0 0 39 38" fill="none" xmlns="http://www.w3.org/2000/svg">
<path fill-rule="evenodd" clip-rule="evenodd" d="M18.3354 38C29.5615 38 38.662 29.4934 38.662 19C38.662 8.50659 29.5615 0 18.3354 0C14.6659 0 11.3972 0.908911 8.65941 2.49902H11.6345L21.042 16.7322H27.135C28.5157 16.7322 29.635 17.8515 29.635 19.2322C29.635 20.613 28.5157 21.7322 27.135 21.7322H20.8332L11.635 35.7325H9.07071C11.7225 37.179 14.8479 38 18.3354 38ZM8.34326 35.3129L15.0848 21.7322L2.13495 21.7322C2.03735 21.7322 1.94106 21.7266 1.84638 21.7158L0.316914 23.1419C0.240361 23.2132 0.158025 23.2696 0.0723897 23.3119C1.13059 28.4 4.06113 32.7043 8.34326 35.3129ZM0 15.0528C0.111634 15.0971 0.219003 15.1638 0.316914 15.2551L1.91168 16.7421C1.98523 16.7356 2.0597 16.7322 2.13495 16.7322H15.3327L8.25669 2.74018C3.92012 5.41652 0.985269 9.84055 0 15.0528Z" fill="#4A1B96"/>
</svg>
