<svg width="26" height="26" viewBox="0 0 26 26" fill="none" xmlns="http://www.w3.org/2000/svg">
<path d="M15.5 8H16.75C17.0815 8 17.3995 7.8683 17.6339 7.63388C17.8683 7.39946 18 7.08152 18 6.75C18 6.41848 17.8683 6.10054 17.6339 5.86612C17.3995 5.6317 17.0815 5.5 16.75 5.5H15.5C15.1685 5.5 14.8505 5.6317 14.6161 5.86612C14.3817 6.10054 14.25 6.41848 14.25 6.75C14.25 7.08152 14.3817 7.39946 14.6161 7.63388C14.8505 7.8683 15.1685 8 15.5 8ZM15.5 13H16.75C17.0815 13 17.3995 12.8683 17.6339 12.6339C17.8683 12.3995 18 12.0815 18 11.75C18 11.4185 17.8683 11.1005 17.6339 10.8661C17.3995 10.6317 17.0815 10.5 16.75 10.5H15.5C15.1685 10.5 14.8505 10.6317 14.6161 10.8661C14.3817 11.1005 14.25 11.4185 14.25 11.75C14.25 12.0815 14.3817 12.3995 14.6161 12.6339C14.8505 12.8683 15.1685 13 15.5 13ZM9.25 8H10.5C10.8315 8 11.1495 7.8683 11.3839 7.63388C11.6183 7.39946 11.75 7.08152 11.75 6.75C11.75 6.41848 11.6183 6.10054 11.3839 5.86612C11.1495 5.6317 10.8315 5.5 10.5 5.5H9.25C8.91848 5.5 8.60054 5.6317 8.36612 5.86612C8.1317 6.10054 8 6.41848 8 6.75C8 7.08152 8.1317 7.39946 8.36612 7.63388C8.60054 7.8683 8.91848 8 9.25 8ZM9.25 13H10.5C10.8315 13 11.1495 12.8683 11.3839 12.6339C11.6183 12.3995 11.75 12.0815 11.75 11.75C11.75 11.4185 11.6183 11.1005 11.3839 10.8661C11.1495 10.6317 10.8315 10.5 10.5 10.5H9.25C8.91848 10.5 8.60054 10.6317 8.36612 10.8661C8.1317 11.1005 8 11.4185 8 11.75C8 12.0815 8.1317 12.3995 8.36612 12.6339C8.60054 12.8683 8.91848 13 9.25 13ZM24.25 23H23V1.75C23 1.41848 22.8683 1.10054 22.6339 0.866116C22.3995 0.631696 22.0815 0.5 21.75 0.5H4.25C3.91848 0.5 3.60054 0.631696 3.36612 0.866116C3.1317 1.10054 3 1.41848 3 1.75V23H1.75C1.41848 23 1.10054 23.1317 0.866116 23.3661C0.631696 23.6005 0.5 23.9185 0.5 24.25C0.5 24.5815 0.631696 24.8995 0.866116 25.1339C1.10054 25.3683 1.41848 25.5 1.75 25.5H24.25C24.5815 25.5 24.8995 25.3683 25.1339 25.1339C25.3683 24.8995 25.5 24.5815 25.5 24.25C25.5 23.9185 25.3683 23.6005 25.1339 23.3661C24.8995 23.1317 24.5815 23 24.25 23ZM14.25 23H11.75V18H14.25V23ZM20.5 23H16.75V16.75C16.75 16.4185 16.6183 16.1005 16.3839 15.8661C16.1495 15.6317 15.8315 15.5 15.5 15.5H10.5C10.1685 15.5 9.85054 15.6317 9.61612 15.8661C9.3817 16.1005 9.25 16.4185 9.25 16.75V23H5.5V3H20.5V23Z" fill="white"/>
</svg>
