<svg width="20" height="20" viewBox="0 0 20 20" fill="none" xmlns="http://www.w3.org/2000/svg">
<mask id="path-1-inside-1_1111_557" fill="white">
<path fill-rule="evenodd" clip-rule="evenodd" d="M10 18C14.4183 18 18 14.4183 18 10C18 5.58172 14.4183 2 10 2C5.58172 2 2 5.58172 2 10C2 14.4183 5.58172 18 10 18ZM10 20C15.5228 20 20 15.5228 20 10C20 4.47715 15.5228 0 10 0C4.47715 0 0 4.47715 0 10C0 15.5228 4.47715 20 10 20ZM9.09017 16.3637V9.09098H11.0902V16.3637H9.09017ZM9.99926 7.2731C10.5013 7.2731 10.9084 6.86608 10.9084 6.36401C10.9084 5.86193 10.5013 5.45492 9.99926 5.45492C9.49718 5.45492 9.09017 5.86193 9.09017 6.36401C9.09017 6.86608 9.49718 7.2731 9.99926 7.2731Z"/>
</mask>
<path fill-rule="evenodd" clip-rule="evenodd" d="M10 18C14.4183 18 18 14.4183 18 10C18 5.58172 14.4183 2 10 2C5.58172 2 2 5.58172 2 10C2 14.4183 5.58172 18 10 18ZM10 20C15.5228 20 20 15.5228 20 10C20 4.47715 15.5228 0 10 0C4.47715 0 0 4.47715 0 10C0 15.5228 4.47715 20 10 20ZM9.09017 16.3637V9.09098H11.0902V16.3637H9.09017ZM9.99926 7.2731C10.5013 7.2731 10.9084 6.86608 10.9084 6.36401C10.9084 5.86193 10.5013 5.45492 9.99926 5.45492C9.49718 5.45492 9.09017 5.86193 9.09017 6.36401C9.09017 6.86608 9.49718 7.2731 9.99926 7.2731Z" fill="#0084FF"/>
<path d="M9.09017 9.09098V7.09098H7.09017V9.09098H9.09017ZM9.09017 16.3637H7.09017V18.3637H9.09017V16.3637ZM11.0902 9.09098H13.0902V7.09098H11.0902V9.09098ZM11.0902 16.3637V18.3637H13.0902V16.3637H11.0902ZM16 10C16 13.3137 13.3137 16 10 16V20C15.5228 20 20 15.5228 20 10H16ZM10 4C13.3137 4 16 6.68629 16 10H20C20 4.47715 15.5228 0 10 0V4ZM4 10C4 6.68629 6.68629 4 10 4V0C4.47715 0 0 4.47715 0 10H4ZM10 16C6.68629 16 4 13.3137 4 10H0C0 15.5228 4.47715 20 10 20V16ZM18 10C18 14.4183 14.4183 18 10 18V22C16.6274 22 22 16.6274 22 10H18ZM10 2C14.4183 2 18 5.58172 18 10H22C22 3.37258 16.6274 -2 10 -2V2ZM2 10C2 5.58172 5.58172 2 10 2V-2C3.37258 -2 -2 3.37258 -2 10H2ZM10 18C5.58172 18 2 14.4183 2 10H-2C-2 16.6274 3.37258 22 10 22V18ZM7.09017 9.09098V16.3637H11.0902V9.09098H7.09017ZM11.0902 7.09098H9.09017V11.091H11.0902V7.09098ZM13.0902 16.3637V9.09098H9.09017V16.3637H13.0902ZM9.09017 18.3637H11.0902V14.3637H9.09017V18.3637ZM8.90835 6.36401C8.90835 5.76151 9.39677 5.2731 9.99926 5.2731V9.2731C11.6059 9.2731 12.9084 7.97065 12.9084 6.36401H8.90835ZM9.99926 7.45492C9.39677 7.45492 8.90835 6.9665 8.90835 6.36401H12.9084C12.9084 4.75736 11.6059 3.45492 9.99926 3.45492V7.45492ZM11.0902 6.36401C11.0902 6.9665 10.6018 7.45492 9.99926 7.45492V3.45492C8.39261 3.45492 7.09017 4.75736 7.09017 6.36401H11.0902ZM9.99926 5.2731C10.6018 5.2731 11.0902 5.76151 11.0902 6.36401H7.09017C7.09017 7.97065 8.39261 9.2731 9.99926 9.2731V5.2731Z" fill="#0084FF" mask="url(#path-1-inside-1_1111_557)"/>
</svg>
