<svg width="24" height="24" viewBox="0 0 24 24" fill="none" xmlns="http://www.w3.org/2000/svg">
<mask id="path-1-inside-1_1104_277" fill="white">
<path d="M10.7963 24H7.98133L11.0225 15H5.97924L4.89311 16.653C4.61995 17.0674 4.24796 17.4075 3.81058 17.6426C3.37321 17.8777 2.88418 18.0005 2.38749 18H0.0160167L2.21831 12L0 6H2.37548C2.87133 5.99934 3.35957 6.12171 3.79638 6.35612C4.23319 6.59053 4.60489 6.92964 4.87809 7.343L5.97924 9H11.0255L7.98133 5.14037e-08H10.7963C11.3358 -9.97046e-05 11.8654 0.144995 12.3294 0.420033C12.7933 0.695071 13.1746 1.08989 13.433 1.563L17.5793 9H20.8878C21.6118 8.99091 22.3159 9.23631 22.8772 9.6933C23.4384 10.1503 23.8209 10.7898 23.958 11.5C24.0308 11.9303 24.0088 12.3714 23.8934 12.7923C23.778 13.2133 23.572 13.604 23.2899 13.9372C23.0078 14.2705 22.6563 14.5382 22.2599 14.7218C21.8635 14.9053 21.4318 15.0003 20.9949 15H17.5793L13.429 22.444C13.17 22.9152 12.789 23.3082 12.3258 23.582C11.8627 23.8557 11.3344 24.0001 10.7963 24Z"/>
</mask>
<path d="M10.7963 24H7.98133L11.0225 15H5.97924L4.89311 16.653C4.61995 17.0674 4.24796 17.4075 3.81058 17.6426C3.37321 17.8777 2.88418 18.0005 2.38749 18H0.0160167L2.21831 12L0 6H2.37548C2.87133 5.99934 3.35957 6.12171 3.79638 6.35612C4.23319 6.59053 4.60489 6.92964 4.87809 7.343L5.97924 9H11.0255L7.98133 5.14037e-08H10.7963C11.3358 -9.97046e-05 11.8654 0.144995 12.3294 0.420033C12.7933 0.695071 13.1746 1.08989 13.433 1.563L17.5793 9H20.8878C21.6118 8.99091 22.3159 9.23631 22.8772 9.6933C23.4384 10.1503 23.8209 10.7898 23.958 11.5C24.0308 11.9303 24.0088 12.3714 23.8934 12.7923C23.778 13.2133 23.572 13.604 23.2899 13.9372C23.0078 14.2705 22.6563 14.5382 22.2599 14.7218C21.8635 14.9053 21.4318 15.0003 20.9949 15H17.5793L13.429 22.444C13.17 22.9152 12.789 23.3082 12.3258 23.582C11.8627 23.8557 11.3344 24.0001 10.7963 24Z" fill="black"/>
<path d="M10.7963 24L10.799 2.66667H10.7963V24ZM7.98133 24L-12.2293 17.1707L-21.7457 45.3333H7.98133V24ZM11.0225 15L31.2332 21.8293L40.7496 -6.33333L11.0225 -6.33333V15ZM5.97924 15V-6.33333H-5.52977L-11.8498 3.28514L5.97924 15ZM4.89311 16.653L22.705 28.3938L22.7136 28.3808L22.7221 28.3679L4.89311 16.653ZM2.38749 18L2.41065 -3.33332L2.39907 -3.33333H2.38749V18ZM0.0160167 18L-20.0109 10.6491L-30.5394 39.3333H0.0160167V18ZM2.21831 12L22.2452 19.3509L24.9531 11.9733L22.2279 4.60209L2.21831 12ZM0 6V-15.3333H-30.632L-20.0095 13.3979L0 6ZM2.37548 6V27.3333H2.38961L2.40374 27.3333L2.37548 6ZM4.87809 7.343L-12.9192 19.1059L-12.9045 19.1282L-12.8897 19.1505L4.87809 7.343ZM5.97924 9L-11.7886 20.8075L-5.45821 30.3333H5.97924V9ZM11.0255 9V30.3333H40.762L31.2341 2.1646L11.0255 9ZM7.98133 5.14037e-08V-21.3333H-21.7551L-12.2273 6.8354L7.98133 5.14037e-08ZM10.7963 5.14037e-08L10.7963 21.3333L10.8002 21.3333L10.7963 5.14037e-08ZM13.433 1.563L-5.28921 11.7899L-5.24499 11.8709L-5.20006 11.9514L13.433 1.563ZM17.5793 9L-1.05373 19.3884L5.04834 30.3333H17.5793V9ZM20.8878 9V30.3333H21.0217L21.1556 30.3317L20.8878 9ZM23.958 11.5L44.9923 7.94083L44.9514 7.69883L44.9049 7.45784L23.958 11.5ZM20.9949 15L21.0088 -6.33333H20.9949V15ZM17.5793 15V-6.33333H5.04849L-1.05363 4.61137L17.5793 15ZM13.429 22.444L-5.20396 12.0554L-5.23511 12.1113L-5.26593 12.1673L13.429 22.444ZM10.7963 2.66667H7.98133V45.3333H10.7963V2.66667ZM28.192 30.8293L31.2332 21.8293L-9.18817 8.17065L-12.2293 17.1707L28.192 30.8293ZM11.0225 -6.33333H5.97924V36.3333H11.0225V-6.33333ZM-11.8498 3.28514L-12.9359 4.93814L22.7221 28.3679L23.8082 26.7149L-11.8498 3.28514ZM-12.9188 4.9122C-11.2448 2.37254 -8.96659 0.290832 -6.29089 -1.14761L13.9121 36.4328C17.4625 34.5241 20.4847 31.7623 22.705 28.3938L-12.9188 4.9122ZM-6.29089 -1.14761C-3.61531 -2.58598 -0.62521 -3.33662 2.41065 -3.33332L2.36433 39.3333C6.39356 39.3377 10.3617 38.3414 13.9121 36.4328L-6.29089 -1.14761ZM2.38749 -3.33333H0.0160167V39.3333H2.38749V-3.33333ZM20.0429 25.3509L22.2452 19.3509L-17.8086 4.64914L-20.0109 10.6491L20.0429 25.3509ZM22.2279 4.60209L20.0095 -1.39791L-20.0095 13.3979L-17.7912 19.3979L22.2279 4.60209ZM0 27.3333H2.37548V-15.3333H0V27.3333ZM2.40374 27.3333C-0.629342 27.3373 -3.61699 26.5889 -6.29119 25.1538L13.884 -12.4415C10.3361 -14.3454 6.37199 -15.3386 2.34722 -15.3333L2.40374 27.3333ZM-6.29119 25.1538C-8.9655 23.7186 -11.2436 21.6412 -12.9192 19.1059L22.6754 -4.4199C20.4534 -7.78187 17.4319 -10.5376 13.884 -12.4415L-6.29119 25.1538ZM-12.8897 19.1505L-11.7886 20.8075L23.747 -2.80748L22.6459 -4.46448L-12.8897 19.1505ZM5.97924 30.3333H11.0255V-12.3333H5.97924V30.3333ZM31.2341 2.1646L28.19 -6.8354L-12.2273 6.8354L-9.18312 15.8354L31.2341 2.1646ZM7.98133 21.3333H10.7963V-21.3333H7.98133V21.3333ZM10.8002 21.3333C7.51154 21.3339 4.28209 20.4496 1.4511 18.7715L23.2076 -17.9314C19.4487 -20.1596 15.16 -21.3341 10.7923 -21.3333L10.8002 21.3333ZM1.4511 18.7715C-1.38008 17.0932 -3.70925 14.6823 -5.28921 11.7899L32.1552 -8.66389C30.0584 -12.5025 26.9668 -15.7031 23.2076 -17.9314L1.4511 18.7715ZM-5.20006 11.9514L-1.05373 19.3884L36.2124 -1.38844L32.0661 -8.82544L-5.20006 11.9514ZM17.5793 30.3333H20.8878V-12.3333H17.5793V30.3333ZM21.1556 30.3317C16.8828 30.3853 12.7241 28.9372 9.4068 26.236L36.3475 -6.84939C31.9077 -10.4646 26.3407 -12.4035 20.62 -12.3317L21.1556 30.3317ZM9.4068 26.236C6.08895 23.5343 3.82311 19.75 3.01111 15.5422L44.9049 7.45784C43.8188 1.82954 40.7878 -3.23377 36.3475 -6.84939L9.4068 26.236ZM2.92366 15.0592C2.47813 12.4261 2.61313 9.7277 3.319 7.15259L44.4677 18.432C45.4044 15.015 45.5835 11.4346 44.9923 7.94083L2.92366 15.0592ZM3.319 7.15259C4.02486 4.57754 5.28424 2.18892 7.00791 0.152928L39.5719 27.7216C41.8598 25.0191 43.5311 21.849 44.4677 18.432L3.319 7.15259ZM7.00791 0.152928C8.73147 -1.88295 10.8776 -3.51701 13.2955 -4.63669L31.2243 34.0803C34.435 32.5935 37.2841 30.4239 39.5719 27.7216L7.00791 0.152928ZM13.2955 -4.63669C15.7133 -5.75633 18.3456 -6.33507 21.0088 -6.33333L20.981 36.3333C24.518 36.3356 28.0137 35.567 31.2243 34.0803L13.2955 -4.63669ZM20.9949 -6.33333H17.5793V36.3333H20.9949V-6.33333ZM-1.05363 4.61137L-5.20396 12.0554L32.062 32.8326L36.2123 25.3886L-1.05363 4.61137ZM-5.26593 12.1673C-3.68236 9.28654 -1.35461 6.88666 1.47145 5.2164L23.1802 41.9475C26.9326 39.7298 30.0223 36.5439 32.124 32.7207L-5.26593 12.1673ZM1.47145 5.2164C4.29736 3.54624 7.51879 2.66624 10.799 2.66667L10.7935 45.3333C15.15 45.3339 19.428 44.1651 23.1802 41.9475L1.47145 5.2164Z" fill="black" mask="url(#path-1-inside-1_1104_277)"/>
</svg>
