<svg width="17" height="17" viewBox="0 0 17 17" fill="none" xmlns="http://www.w3.org/2000/svg">
<mask id="path-1-inside-1_1109_321" fill="white">
<path d="M7.64735 17H5.65344L7.8076 10.625H4.23529L3.46595 11.7959C3.27247 12.0894 3.00897 12.3303 2.69916 12.4968C2.38935 12.6634 2.04296 12.7504 1.69114 12.75H0.0113452L1.57131 8.5L0 4.25H1.68263C2.03386 4.24953 2.3797 4.33621 2.6891 4.50225C2.99851 4.66829 3.26179 4.90849 3.45531 5.20129L4.23529 6.375H7.80973L5.65344 3.6411e-08H7.64735C8.02952 -7.06241e-05 8.40464 0.102705 8.73329 0.297523C9.06195 0.492342 9.332 0.772008 9.51505 1.10712L12.452 6.375H14.7955C15.3083 6.36856 15.8071 6.54239 16.2046 6.86609C16.6022 7.18979 16.8732 7.64277 16.9702 8.14583C17.0218 8.45066 17.0062 8.76305 16.9245 9.06122C16.8427 9.3594 16.6969 9.63616 16.497 9.87221C16.2972 10.1083 16.0482 10.2979 15.7674 10.4279C15.4866 10.5579 15.1809 10.6252 14.8714 10.625H12.452L9.51222 15.8978C9.32874 16.2316 9.05886 16.51 8.73079 16.7039C8.40273 16.8978 8.02853 17 7.64735 17Z"/>
</mask>
<path d="M7.64735 17H5.65344L7.8076 10.625H4.23529L3.46595 11.7959C3.27247 12.0894 3.00897 12.3303 2.69916 12.4968C2.38935 12.6634 2.04296 12.7504 1.69114 12.75H0.0113452L1.57131 8.5L0 4.25H1.68263C2.03386 4.24953 2.3797 4.33621 2.6891 4.50225C2.99851 4.66829 3.26179 4.90849 3.45531 5.20129L4.23529 6.375H7.80973L5.65344 3.6411e-08H7.64735C8.02952 -7.06241e-05 8.40464 0.102705 8.73329 0.297523C9.06195 0.492342 9.332 0.772008 9.51505 1.10712L12.452 6.375H14.7955C15.3083 6.36856 15.8071 6.54239 16.2046 6.86609C16.6022 7.18979 16.8732 7.64277 16.9702 8.14583C17.0218 8.45066 17.0062 8.76305 16.9245 9.06122C16.8427 9.3594 16.6969 9.63616 16.497 9.87221C16.2972 10.1083 16.0482 10.2979 15.7674 10.4279C15.4866 10.5579 15.1809 10.6252 14.8714 10.625H12.452L9.51222 15.8978C9.32874 16.2316 9.05886 16.51 8.73079 16.7039C8.40273 16.8978 8.02853 17 7.64735 17Z" fill="#4A1B96"/>
<path d="M7.64735 17L7.6501 -4.33333H7.64735V17ZM5.65344 17L-14.5572 10.1707L-24.0736 38.3333H5.65344V17ZM7.8076 10.625L28.0183 17.4543L37.5347 -10.7083H7.8076V10.625ZM4.23529 10.625V-10.7083H-7.27371L-13.5937 -1.08986L4.23529 10.625ZM3.46595 11.7959L21.2779 23.5367L21.2864 23.5237L21.2949 23.5107L3.46595 11.7959ZM1.69114 12.75L1.7143 -8.58332L1.70272 -8.58333H1.69114V12.75ZM0.0113452 12.75L-20.0155 5.39914L-30.5441 34.0833H0.0113452V12.75ZM1.57131 8.5L21.5982 15.8509L24.3061 8.47328L21.5809 1.10209L1.57131 8.5ZM0 4.25V-17.0833H-30.632L-20.0095 11.6479L0 4.25ZM1.68263 4.25V25.5833H1.69676L1.71089 25.5833L1.68263 4.25ZM3.45531 5.20129L-14.342 16.9642L-14.3273 16.9865L-14.3125 17.0088L3.45531 5.20129ZM4.23529 6.375L-13.5325 18.1825L-7.20216 27.7083H4.23529V6.375ZM7.80973 6.375V27.7083H37.5462L28.0184 -0.460401L7.80973 6.375ZM5.65344 3.6411e-08V-21.3333H-24.083L-14.5552 6.8354L5.65344 3.6411e-08ZM7.64735 3.6411e-08V21.3333H7.6513L7.64735 3.6411e-08ZM9.51505 1.10712L-9.20718 11.334L-9.16295 11.415L-9.11802 11.4956L9.51505 1.10712ZM12.452 6.375L-6.18104 16.7634L-0.0789723 27.7083H12.452V6.375ZM14.7955 6.375V27.7083H14.9294L15.0633 27.7067L14.7955 6.375ZM16.9702 8.14583L38.0046 4.58666L37.9636 4.34467L37.9171 4.10368L16.9702 8.14583ZM15.7674 10.4279L6.80301 -8.93055L15.7674 10.4279ZM14.8714 10.625L14.8853 -10.7083H14.8714V10.625ZM12.452 10.625V-10.7083H-0.0788236L-6.18094 0.236371L12.452 10.625ZM9.51222 15.8978L-9.12075 5.5092L-9.15191 5.56508L-9.18273 5.62115L9.51222 15.8978ZM7.64735 -4.33333H5.65344V38.3333H7.64735V-4.33333ZM25.8641 23.8293L28.0183 17.4543L-12.4031 3.79565L-14.5572 10.1707L25.8641 23.8293ZM7.8076 -10.7083H4.23529V31.9583H7.8076V-10.7083ZM-13.5937 -1.08986L-14.363 0.0810119L21.2949 23.5107L22.0643 22.3399L-13.5937 -1.08986ZM-14.346 0.0550794C-12.5923 -2.60545 -10.2056 -4.78634 -7.40231 -6.29336L12.8006 31.287C16.2235 29.4469 19.1372 26.7843 21.2779 23.5367L-14.346 0.0550794ZM-7.40231 -6.29336C-4.59917 -7.80031 -1.46643 -8.58677 1.7143 -8.58332L1.66798 34.0833C5.55235 34.0875 9.37788 33.1271 12.8006 31.287L-7.40231 -6.29336ZM1.69114 -8.58333H0.0113452V34.0833H1.69114V-8.58333ZM20.0382 20.1009L21.5982 15.8509L-18.4556 1.14914L-20.0155 5.39914L20.0382 20.1009ZM21.5809 1.10209L20.0095 -3.14791L-20.0095 11.6479L-18.4382 15.8979L21.5809 1.10209ZM0 25.5833H1.68263V-17.0833H0V25.5833ZM1.71089 25.5833C-1.46681 25.5875 -4.59687 24.8034 -7.39846 23.2999L12.7767 -14.2954C9.35626 -16.1309 5.53452 -17.0885 1.65437 -17.0833L1.71089 25.5833ZM-7.39846 23.2999C-10.2002 21.7964 -12.5867 19.62 -14.342 16.9642L21.2527 -6.56161C19.1103 -9.80302 16.1972 -12.4598 12.7767 -14.2954L-7.39846 23.2999ZM-14.3125 17.0088L-13.5325 18.1825L22.0031 -5.43248L21.2231 -6.60618L-14.3125 17.0088ZM4.23529 27.7083H7.80973V-14.9583H4.23529V27.7083ZM28.0184 -0.460401L25.8621 -6.8354L-14.5552 6.8354L-12.3989 13.2104L28.0184 -0.460401ZM5.65344 21.3333H7.64735V-21.3333H5.65344V21.3333ZM7.6513 21.3333C4.20527 21.334 0.821357 20.4073 -2.14497 18.6489L19.6116 -18.0539C15.9879 -20.2019 11.8538 -21.3341 7.64341 -21.3333L7.6513 21.3333ZM-2.14497 18.6489C-5.11146 16.8905 -7.55184 14.3644 -9.20718 11.334L28.2373 -9.11976C26.2158 -12.8204 23.2354 -15.9058 19.6116 -18.0539L-2.14497 18.6489ZM-9.11802 11.4956L-6.18104 16.7634L31.0851 -4.01344L28.1481 -9.28131L-9.11802 11.4956ZM12.452 27.7083H14.7955V-14.9583H12.452V27.7083ZM15.0633 27.7067C10.5794 27.7629 6.21531 26.2433 2.73429 23.4088L29.675 -9.67661C25.3989 -13.1585 20.0373 -15.0258 14.5277 -14.9567L15.0633 27.7067ZM2.73429 23.4088C-0.747237 20.5738 -3.12467 16.603 -3.97664 12.188L37.9171 4.10368C36.871 -1.31749 33.9516 -6.19427 29.675 -9.67661L2.73429 23.4088ZM-4.06409 11.705C-4.53086 8.94649 -4.38944 6.11943 -3.6499 3.4215L37.4988 14.7009C38.4018 11.4067 38.5745 7.95483 38.0046 4.58666L-4.06409 11.705ZM-3.6499 3.4215C-2.91039 0.72367 -1.59094 -1.77892 0.215012 -3.9121L32.779 23.6565C34.9847 21.0512 36.5959 17.9951 37.4988 14.7009L-3.6499 3.4215ZM0.215012 -3.9121C2.02088 -6.04518 4.26949 -7.75734 6.80301 -8.93055L24.7318 29.7864C27.8269 28.3532 30.5735 26.2617 32.779 23.6565L0.215012 -3.9121ZM6.80301 -8.93055C9.33647 -10.1037 12.0946 -10.7102 14.8853 -10.7083L14.8575 31.9583C18.2671 31.9606 21.6368 31.2196 24.7318 29.7864L6.80301 -8.93055ZM14.8714 -10.7083H12.452V31.9583H14.8714V-10.7083ZM-6.18094 0.236371L-9.12075 5.5092L28.1452 26.2865L31.085 21.0136L-6.18094 0.236371ZM-9.18273 5.62115C-7.52361 2.60294 -5.08473 0.0884229 -2.12358 -1.66167L19.5852 35.0694C23.2024 32.9316 26.1811 29.8603 28.2072 26.1745L-9.18273 5.62115ZM-2.12358 -1.66167C0.837418 -3.41167 4.21293 -4.33378 7.6501 -4.33333L7.6446 38.3333C11.8441 38.3339 15.968 37.2072 19.5852 35.0694L-2.12358 -1.66167Z" fill="#4A1B96" mask="url(#path-1-inside-1_1109_321)"/>
</svg>
