<svg width="15" height="15" viewBox="0 0 15 15" fill="none" xmlns="http://www.w3.org/2000/svg">
<path d="M13.75 6.31271C13.8125 6.00021 13.5625 5.62521 13.25 5.62521L9.6875 5.12521L8.0625 1.87521C8 1.75021 7.9375 1.68771 7.8125 1.62521C7.5 1.43771 7.125 1.56271 6.9375 1.87521L5.375 5.12521L1.8125 5.62521C1.625 5.62521 1.5 5.68771 1.4375 5.81271C1.1875 6.06271 1.1875 6.43771 1.4375 6.68771L4 9.18771L3.375 12.7502C3.375 12.8752 3.375 13.0002 3.4375 13.1252C3.625 13.4377 4 13.5627 4.3125 13.3752L7.5 11.6877L10.6875 13.3752C10.75 13.4377 10.875 13.4377 11 13.4377C11.0625 13.4377 11.0625 13.4377 11.125 13.4377C11.4375 13.3752 11.6875 13.0627 11.625 12.6877L11 9.12521L13.5625 6.62521C13.6875 6.56271 13.75 6.43771 13.75 6.31271Z" fill="black" fill-opacity="0.13"/>
</svg>
