<svg width="14" height="14" viewBox="0 0 14 14" fill="none" xmlns="http://www.w3.org/2000/svg">
<path d="M3.85052 2.99145C3.64282 2.99145 3.43979 3.05024 3.26709 3.16038C3.0944 3.27053 2.9598 3.42708 2.88032 3.61025C2.80083 3.79341 2.78004 3.99496 2.82056 4.18941C2.86108 4.38386 2.96109 4.56247 3.10796 4.70266C3.25482 4.84285 3.44194 4.93832 3.64564 4.977C3.84935 5.01567 4.0605 4.99582 4.25239 4.91995C4.44427 4.84408 4.60828 4.7156 4.72367 4.55076C4.83907 4.38591 4.90065 4.19211 4.90065 3.99385C4.90065 3.728 4.79002 3.47303 4.59308 3.28505C4.39614 3.09706 4.12903 2.99145 3.85052 2.99145ZM13.3858 6.139L7.49799 0.512169C7.43258 0.450233 7.355 0.401232 7.2697 0.367975C7.1844 0.334719 7.09307 0.317862 7.00093 0.318371H0.700103C0.514428 0.318371 0.336356 0.388777 0.205064 0.514102C0.0737711 0.639427 1.17015e-05 0.809404 1.17015e-05 0.98664V7.00107C-0.000520993 7.08901 0.0171389 7.1762 0.0519786 7.25762C0.0868184 7.33904 0.138153 7.41309 0.203038 7.47554L6.09781 13.0957C6.49161 13.4711 7.02543 13.682 7.58201 13.682C8.13858 13.682 8.6724 13.4711 9.0662 13.0957L13.3858 9.00587C13.7791 8.62997 14 8.12042 14 7.58914C14 7.05787 13.7791 6.54831 13.3858 6.17241V6.139ZM12.3986 8.02352L8.07207 12.1467C7.9409 12.2712 7.76346 12.3411 7.57851 12.3411C7.39355 12.3411 7.21611 12.2712 7.08494 12.1467L1.4002 6.72708V1.65491H6.71389L12.3986 7.08126C12.4635 7.1437 12.5149 7.21776 12.5497 7.29918C12.5845 7.3806 12.6022 7.46778 12.6017 7.55573C12.6009 7.73104 12.528 7.89904 12.3986 8.02352Z" fill="#4A1B96"/>
</svg>
